<mxfile host="app.diagrams.net" agent="Mozilla/5.0 (Windows NT 10.0; Win64; x64) AppleWebKit/537.36 (KHTML, like Gecko) Chrome/130.0.0.0 Safari/537.36" version="24.8.3">
  <diagram name="Page-1" id="t6a-i_2EchZeH-PQThM6">
    <mxGraphModel dx="1588" dy="892" grid="1" gridSize="10" guides="1" tooltips="1" connect="1" arrows="1" fold="1" page="1" pageScale="1" pageWidth="827" pageHeight="1169" math="0" shadow="0">
      <root>
        <mxCell id="0" />
        <mxCell id="1" parent="0" />
        <mxCell id="3uKfJjuiD9Oq2MFyIdN_-1" value="Mulai" style="rounded=1;whiteSpace=wrap;arcSize=50;strokeWidth=2;" vertex="1" parent="1">
          <mxGeometry x="707" y="20" width="62" height="34" as="geometry" />
        </mxCell>
        <mxCell id="3uKfJjuiD9Oq2MFyIdN_-2" value="Inisialisasi Serial pada baud rate 115200" style="whiteSpace=wrap;strokeWidth=2;" vertex="1" parent="1">
          <mxGeometry x="610" y="104" width="257" height="66" as="geometry" />
        </mxCell>
        <mxCell id="3uKfJjuiD9Oq2MFyIdN_-3" value="Inisialisasi pin GPIO 5 dan 4 sebagai OUTPUT, set ke LOW" style="whiteSpace=wrap;strokeWidth=2;" vertex="1" parent="1">
          <mxGeometry x="610" y="220" width="257" height="84" as="geometry" />
        </mxCell>
        <mxCell id="3uKfJjuiD9Oq2MFyIdN_-4" value="Hubungkan ke Wi-Fi menggunakan SSID dan Password" style="whiteSpace=wrap;strokeWidth=2;" vertex="1" parent="1">
          <mxGeometry x="626" y="354" width="223" height="84" as="geometry" />
        </mxCell>
        <mxCell id="3uKfJjuiD9Oq2MFyIdN_-5" value="Koneksi Wi-Fi berhasil?" style="rhombus;strokeWidth=2;whiteSpace=wrap;" vertex="1" parent="1">
          <mxGeometry x="632" y="488" width="212" height="212" as="geometry" />
        </mxCell>
        <mxCell id="3uKfJjuiD9Oq2MFyIdN_-6" value="Loop hingga terhubung" style="whiteSpace=wrap;strokeWidth=2;" vertex="1" parent="1">
          <mxGeometry x="498" y="781" width="224" height="49" as="geometry" />
        </mxCell>
        <mxCell id="3uKfJjuiD9Oq2MFyIdN_-7" value="Cetak alamat IP dan mulai web server" style="whiteSpace=wrap;strokeWidth=2;" vertex="1" parent="1">
          <mxGeometry x="772" y="772" width="249" height="66" as="geometry" />
        </mxCell>
        <mxCell id="3uKfJjuiD9Oq2MFyIdN_-8" value="Loop Menunggu Klien Terhubung" style="whiteSpace=wrap;strokeWidth=2;" vertex="1" parent="1">
          <mxGeometry x="791" y="888" width="211" height="66" as="geometry" />
        </mxCell>
        <mxCell id="3uKfJjuiD9Oq2MFyIdN_-9" value="Ada Klien Baru?" style="rhombus;strokeWidth=2;whiteSpace=wrap;" vertex="1" parent="1">
          <mxGeometry x="481" y="1027" width="160" height="160" as="geometry" />
        </mxCell>
        <mxCell id="3uKfJjuiD9Oq2MFyIdN_-10" value="Cetak pesan klien baru" style="whiteSpace=wrap;strokeWidth=2;" vertex="1" parent="1">
          <mxGeometry x="449" y="1260" width="224" height="49" as="geometry" />
        </mxCell>
        <mxCell id="3uKfJjuiD9Oq2MFyIdN_-11" value="Set waktu saat ini sebagai currentTime dan previousTime" style="whiteSpace=wrap;strokeWidth=2;" vertex="1" parent="1">
          <mxGeometry x="438" y="1359" width="247" height="84" as="geometry" />
        </mxCell>
        <mxCell id="3uKfJjuiD9Oq2MFyIdN_-12" value="Loop klien terhubung, belum timeout" style="rhombus;strokeWidth=2;whiteSpace=wrap;" vertex="1" parent="1">
          <mxGeometry x="449" y="1493" width="224" height="224" as="geometry" />
        </mxCell>
        <mxCell id="3uKfJjuiD9Oq2MFyIdN_-13" value="Baca karakter dan tambahkan ke header" style="whiteSpace=wrap;strokeWidth=2;" vertex="1" parent="1">
          <mxGeometry x="453" y="1789" width="216" height="66" as="geometry" />
        </mxCell>
        <mxCell id="3uKfJjuiD9Oq2MFyIdN_-14" value="Header berisi GET untuk GPIO 5 atau 4?" style="rhombus;strokeWidth=2;whiteSpace=wrap;" vertex="1" parent="1">
          <mxGeometry x="440" y="1906" width="241" height="241" as="geometry" />
        </mxCell>
        <mxCell id="3uKfJjuiD9Oq2MFyIdN_-15" value="Set output5State ke on, nyalakan GPIO 5" style="whiteSpace=wrap;strokeWidth=2;" vertex="1" parent="1">
          <mxGeometry x="20" y="2220" width="231" height="66" as="geometry" />
        </mxCell>
        <mxCell id="3uKfJjuiD9Oq2MFyIdN_-16" value="Set output5State ke off, matikan GPIO 5" style="whiteSpace=wrap;strokeWidth=2;" vertex="1" parent="1">
          <mxGeometry x="301" y="2220" width="234" height="66" as="geometry" />
        </mxCell>
        <mxCell id="3uKfJjuiD9Oq2MFyIdN_-17" value="Set output4State ke on, nyalakan GPIO 4" style="whiteSpace=wrap;strokeWidth=2;" vertex="1" parent="1">
          <mxGeometry x="585" y="2220" width="231" height="66" as="geometry" />
        </mxCell>
        <mxCell id="3uKfJjuiD9Oq2MFyIdN_-18" value="Set output4State ke off, matikan GPIO 4" style="whiteSpace=wrap;strokeWidth=2;" vertex="1" parent="1">
          <mxGeometry x="866" y="2220" width="234" height="66" as="geometry" />
        </mxCell>
        <mxCell id="3uKfJjuiD9Oq2MFyIdN_-19" value="Bangun halaman HTML untuk status GPIO dan tombol" style="whiteSpace=wrap;strokeWidth=2;" vertex="1" parent="1">
          <mxGeometry x="588" y="2336" width="222" height="84" as="geometry" />
        </mxCell>
        <mxCell id="3uKfJjuiD9Oq2MFyIdN_-20" value="Kirim halaman HTML ke klien" style="whiteSpace=wrap;strokeWidth=2;" vertex="1" parent="1">
          <mxGeometry x="585" y="2470" width="228" height="66" as="geometry" />
        </mxCell>
        <mxCell id="3uKfJjuiD9Oq2MFyIdN_-21" value="Tutup koneksi klien" style="whiteSpace=wrap;strokeWidth=2;" vertex="1" parent="1">
          <mxGeometry x="820" y="2586" width="198" height="49" as="geometry" />
        </mxCell>
        <mxCell id="3uKfJjuiD9Oq2MFyIdN_-22" value="" style="curved=1;startArrow=none;endArrow=block;exitX=0.5;exitY=0.99;entryX=0.5;entryY=-0.01;rounded=0;" edge="1" parent="1" source="3uKfJjuiD9Oq2MFyIdN_-1" target="3uKfJjuiD9Oq2MFyIdN_-2">
          <mxGeometry relative="1" as="geometry">
            <Array as="points" />
          </mxGeometry>
        </mxCell>
        <mxCell id="3uKfJjuiD9Oq2MFyIdN_-23" value="" style="curved=1;startArrow=none;endArrow=block;exitX=0.5;exitY=1;entryX=0.5;entryY=0;rounded=0;" edge="1" parent="1" source="3uKfJjuiD9Oq2MFyIdN_-2" target="3uKfJjuiD9Oq2MFyIdN_-3">
          <mxGeometry relative="1" as="geometry">
            <Array as="points" />
          </mxGeometry>
        </mxCell>
        <mxCell id="3uKfJjuiD9Oq2MFyIdN_-24" value="" style="curved=1;startArrow=none;endArrow=block;exitX=0.5;exitY=1;entryX=0.5;entryY=0;rounded=0;" edge="1" parent="1" source="3uKfJjuiD9Oq2MFyIdN_-3" target="3uKfJjuiD9Oq2MFyIdN_-4">
          <mxGeometry relative="1" as="geometry">
            <Array as="points" />
          </mxGeometry>
        </mxCell>
        <mxCell id="3uKfJjuiD9Oq2MFyIdN_-25" value="" style="curved=1;startArrow=none;endArrow=block;exitX=0.5;exitY=1;entryX=0.5;entryY=0;rounded=0;" edge="1" parent="1" source="3uKfJjuiD9Oq2MFyIdN_-4" target="3uKfJjuiD9Oq2MFyIdN_-5">
          <mxGeometry relative="1" as="geometry">
            <Array as="points" />
          </mxGeometry>
        </mxCell>
        <mxCell id="3uKfJjuiD9Oq2MFyIdN_-26" value="Tidak" style="curved=1;startArrow=none;endArrow=block;exitX=0;exitY=0.97;entryX=0.47;entryY=0;rounded=0;" edge="1" parent="1" source="3uKfJjuiD9Oq2MFyIdN_-5" target="3uKfJjuiD9Oq2MFyIdN_-6">
          <mxGeometry relative="1" as="geometry">
            <Array as="points">
              <mxPoint x="589" y="736" />
            </Array>
          </mxGeometry>
        </mxCell>
        <mxCell id="3uKfJjuiD9Oq2MFyIdN_-27" value="" style="curved=1;startArrow=none;endArrow=block;exitX=0.53;exitY=0;entryX=0.12;entryY=1;rounded=0;" edge="1" parent="1" source="3uKfJjuiD9Oq2MFyIdN_-6" target="3uKfJjuiD9Oq2MFyIdN_-5">
          <mxGeometry relative="1" as="geometry">
            <Array as="points">
              <mxPoint x="631" y="736" />
            </Array>
          </mxGeometry>
        </mxCell>
        <mxCell id="3uKfJjuiD9Oq2MFyIdN_-28" value="Ya" style="curved=1;startArrow=none;endArrow=block;exitX=1;exitY=0.95;entryX=0.5;entryY=0;rounded=0;" edge="1" parent="1" source="3uKfJjuiD9Oq2MFyIdN_-5" target="3uKfJjuiD9Oq2MFyIdN_-7">
          <mxGeometry relative="1" as="geometry">
            <Array as="points">
              <mxPoint x="896" y="736" />
            </Array>
          </mxGeometry>
        </mxCell>
        <mxCell id="3uKfJjuiD9Oq2MFyIdN_-29" value="" style="curved=1;startArrow=none;endArrow=block;exitX=0.5;exitY=1.01;entryX=0.5;entryY=0.01;rounded=0;" edge="1" parent="1" source="3uKfJjuiD9Oq2MFyIdN_-7" target="3uKfJjuiD9Oq2MFyIdN_-8">
          <mxGeometry relative="1" as="geometry">
            <Array as="points" />
          </mxGeometry>
        </mxCell>
        <mxCell id="3uKfJjuiD9Oq2MFyIdN_-30" value="" style="curved=1;startArrow=none;endArrow=block;exitX=0;exitY=0.82;entryX=0.41;entryY=0;rounded=0;" edge="1" parent="1" source="3uKfJjuiD9Oq2MFyIdN_-8" target="3uKfJjuiD9Oq2MFyIdN_-9">
          <mxGeometry relative="1" as="geometry">
            <Array as="points">
              <mxPoint x="540" y="991" />
            </Array>
          </mxGeometry>
        </mxCell>
        <mxCell id="3uKfJjuiD9Oq2MFyIdN_-31" value="Tidak" style="curved=1;startArrow=none;endArrow=block;exitX=1;exitY=0.38;entryX=0.81;entryY=1.01;rounded=0;" edge="1" parent="1" source="3uKfJjuiD9Oq2MFyIdN_-9" target="3uKfJjuiD9Oq2MFyIdN_-8">
          <mxGeometry relative="1" as="geometry">
            <Array as="points">
              <mxPoint x="1034" y="991" />
            </Array>
          </mxGeometry>
        </mxCell>
        <mxCell id="3uKfJjuiD9Oq2MFyIdN_-32" value="Ya" style="curved=1;startArrow=none;endArrow=block;exitX=0.5;exitY=1;entryX=0.5;entryY=0;rounded=0;" edge="1" parent="1" source="3uKfJjuiD9Oq2MFyIdN_-9" target="3uKfJjuiD9Oq2MFyIdN_-10">
          <mxGeometry relative="1" as="geometry">
            <Array as="points" />
          </mxGeometry>
        </mxCell>
        <mxCell id="3uKfJjuiD9Oq2MFyIdN_-33" value="" style="curved=1;startArrow=none;endArrow=block;exitX=0.5;exitY=0.99;entryX=0.5;entryY=0;rounded=0;" edge="1" parent="1" source="3uKfJjuiD9Oq2MFyIdN_-10" target="3uKfJjuiD9Oq2MFyIdN_-11">
          <mxGeometry relative="1" as="geometry">
            <Array as="points" />
          </mxGeometry>
        </mxCell>
        <mxCell id="3uKfJjuiD9Oq2MFyIdN_-34" value="" style="curved=1;startArrow=none;endArrow=block;exitX=0.5;exitY=1;entryX=0.5;entryY=0;rounded=0;" edge="1" parent="1" source="3uKfJjuiD9Oq2MFyIdN_-11" target="3uKfJjuiD9Oq2MFyIdN_-12">
          <mxGeometry relative="1" as="geometry">
            <Array as="points" />
          </mxGeometry>
        </mxCell>
        <mxCell id="3uKfJjuiD9Oq2MFyIdN_-35" value="Data Masuk" style="curved=1;startArrow=none;endArrow=block;exitX=0.5;exitY=1;entryX=0.5;entryY=0;rounded=0;" edge="1" parent="1" source="3uKfJjuiD9Oq2MFyIdN_-12" target="3uKfJjuiD9Oq2MFyIdN_-13">
          <mxGeometry relative="1" as="geometry">
            <Array as="points" />
          </mxGeometry>
        </mxCell>
        <mxCell id="3uKfJjuiD9Oq2MFyIdN_-36" value="" style="curved=1;startArrow=none;endArrow=block;exitX=0.5;exitY=1.01;entryX=0.5;entryY=0;rounded=0;" edge="1" parent="1" source="3uKfJjuiD9Oq2MFyIdN_-13" target="3uKfJjuiD9Oq2MFyIdN_-14">
          <mxGeometry relative="1" as="geometry">
            <Array as="points" />
          </mxGeometry>
        </mxCell>
        <mxCell id="3uKfJjuiD9Oq2MFyIdN_-37" value="GET /5/on" style="curved=1;startArrow=none;endArrow=block;exitX=0;exitY=0.68;entryX=0.5;entryY=-0.01;rounded=0;" edge="1" parent="1" source="3uKfJjuiD9Oq2MFyIdN_-14" target="3uKfJjuiD9Oq2MFyIdN_-15">
          <mxGeometry relative="1" as="geometry">
            <Array as="points">
              <mxPoint x="135" y="2183" />
            </Array>
          </mxGeometry>
        </mxCell>
        <mxCell id="3uKfJjuiD9Oq2MFyIdN_-38" value="GET /5/off" style="curved=1;startArrow=none;endArrow=block;exitX=0.05;exitY=1;entryX=0.5;entryY=-0.01;rounded=0;" edge="1" parent="1" source="3uKfJjuiD9Oq2MFyIdN_-14" target="3uKfJjuiD9Oq2MFyIdN_-16">
          <mxGeometry relative="1" as="geometry">
            <Array as="points">
              <mxPoint x="418" y="2183" />
            </Array>
          </mxGeometry>
        </mxCell>
        <mxCell id="3uKfJjuiD9Oq2MFyIdN_-39" value="GET /4/on" style="curved=1;startArrow=none;endArrow=block;exitX=0.95;exitY=1;entryX=0.5;entryY=-0.01;rounded=0;" edge="1" parent="1" source="3uKfJjuiD9Oq2MFyIdN_-14" target="3uKfJjuiD9Oq2MFyIdN_-17">
          <mxGeometry relative="1" as="geometry">
            <Array as="points">
              <mxPoint x="700" y="2183" />
            </Array>
          </mxGeometry>
        </mxCell>
        <mxCell id="3uKfJjuiD9Oq2MFyIdN_-40" value="GET /4/off" style="curved=1;startArrow=none;endArrow=block;exitX=1;exitY=0.69;entryX=0.5;entryY=-0.01;rounded=0;" edge="1" parent="1" source="3uKfJjuiD9Oq2MFyIdN_-14" target="3uKfJjuiD9Oq2MFyIdN_-18">
          <mxGeometry relative="1" as="geometry">
            <Array as="points">
              <mxPoint x="983" y="2183" />
            </Array>
          </mxGeometry>
        </mxCell>
        <mxCell id="3uKfJjuiD9Oq2MFyIdN_-41" value="" style="curved=1;startArrow=none;endArrow=block;exitX=0.5;exitY=1;entryX=0;entryY=0.34;rounded=0;" edge="1" parent="1" source="3uKfJjuiD9Oq2MFyIdN_-15" target="3uKfJjuiD9Oq2MFyIdN_-19">
          <mxGeometry relative="1" as="geometry">
            <Array as="points">
              <mxPoint x="135" y="2311" />
            </Array>
          </mxGeometry>
        </mxCell>
        <mxCell id="3uKfJjuiD9Oq2MFyIdN_-42" value="" style="curved=1;startArrow=none;endArrow=block;exitX=0.5;exitY=1;entryX=0;entryY=0.18;rounded=0;" edge="1" parent="1" source="3uKfJjuiD9Oq2MFyIdN_-16" target="3uKfJjuiD9Oq2MFyIdN_-19">
          <mxGeometry relative="1" as="geometry">
            <Array as="points">
              <mxPoint x="418" y="2311" />
            </Array>
          </mxGeometry>
        </mxCell>
        <mxCell id="3uKfJjuiD9Oq2MFyIdN_-43" value="" style="curved=1;startArrow=none;endArrow=block;exitX=0.5;exitY=1;entryX=0.5;entryY=0;rounded=0;" edge="1" parent="1" source="3uKfJjuiD9Oq2MFyIdN_-17" target="3uKfJjuiD9Oq2MFyIdN_-19">
          <mxGeometry relative="1" as="geometry">
            <Array as="points">
              <mxPoint x="700" y="2311" />
            </Array>
          </mxGeometry>
        </mxCell>
        <mxCell id="3uKfJjuiD9Oq2MFyIdN_-44" value="" style="curved=1;startArrow=none;endArrow=block;exitX=0.5;exitY=1;entryX=1;entryY=0.18;rounded=0;" edge="1" parent="1" source="3uKfJjuiD9Oq2MFyIdN_-18" target="3uKfJjuiD9Oq2MFyIdN_-19">
          <mxGeometry relative="1" as="geometry">
            <Array as="points">
              <mxPoint x="983" y="2311" />
            </Array>
          </mxGeometry>
        </mxCell>
        <mxCell id="3uKfJjuiD9Oq2MFyIdN_-45" value="" style="curved=1;startArrow=none;endArrow=block;exitX=0.5;exitY=1;entryX=0.5;entryY=-0.01;rounded=0;" edge="1" parent="1" source="3uKfJjuiD9Oq2MFyIdN_-19" target="3uKfJjuiD9Oq2MFyIdN_-20">
          <mxGeometry relative="1" as="geometry">
            <Array as="points" />
          </mxGeometry>
        </mxCell>
        <mxCell id="3uKfJjuiD9Oq2MFyIdN_-46" value="" style="curved=1;startArrow=none;endArrow=block;exitX=0.5;exitY=1;entryX=0;entryY=0.04;rounded=0;" edge="1" parent="1" source="3uKfJjuiD9Oq2MFyIdN_-20" target="3uKfJjuiD9Oq2MFyIdN_-21">
          <mxGeometry relative="1" as="geometry">
            <Array as="points">
              <mxPoint x="699" y="2561" />
            </Array>
          </mxGeometry>
        </mxCell>
        <mxCell id="3uKfJjuiD9Oq2MFyIdN_-47" value="" style="curved=1;startArrow=none;endArrow=block;exitX=1;exitY=0.03;entryX=1;entryY=0.97;rounded=0;" edge="1" parent="1" source="3uKfJjuiD9Oq2MFyIdN_-21" target="3uKfJjuiD9Oq2MFyIdN_-8">
          <mxGeometry relative="1" as="geometry">
            <Array as="points">
              <mxPoint x="1135" y="2561" />
              <mxPoint x="1135" y="991" />
            </Array>
          </mxGeometry>
        </mxCell>
      </root>
    </mxGraphModel>
  </diagram>
</mxfile>
